#Comment line ignore any data following # character 
#Hierarchical Translation and Rotation (.htr) file 
[Header]	
#Header keywords are followed by a single value 
FileType HTR		#Single word string
DataType HTRS		#Translation followed by rotation and scale data
FileVersion 1		#integer
NumSegments 64		#integer
NumFrames 3		#integer
DataFrameRate 30		#integer, data frame rate in this file
EulerRotationOrder ZYX
CalibrationUnits mm
RotationUnits Degrees
GlobalAxisofGravity Y
BoneLengthAxis Y
ScaleFactor 1.00
[SegmentNames&Hierarchy]
#CHILD	PARENT
Pinger_Root GLOBAL
Pelvis Pinger_Root
L_Hip Pelvis
R_Hip Pelvis
Rear_Leg01 Pelvis
Spine1 Pelvis
L_Leg01 L_Hip
L_Leg02 L_Leg01
L_Leg03 L_Leg02
L_Foot L_Leg03
L_Toe1_01 L_Foot
L_Toe2_01 L_Foot
L_Toe3_01 L_Foot
planeAlignerLeft L_Foot
L_Toe1_02 L_Toe1_01
L_Toe1_03 L_Toe1_02
L_Toe2_02 L_Toe2_01
L_Toe2_03 L_Toe2_02
L_Toe3_02 L_Toe3_01
L_Toe3_03 L_Toe3_02
planeLockWeightLeft planeAlignerLeft
R_Leg01 R_Hip
R_Leg02 R_Leg01
R_Leg03 R_Leg02
R_Foot R_Leg03
planeAlignerRight R_Foot
R_Toe1_01 R_Foot
R_Toe2_01 R_Foot
R_Toe3_01 R_Foot
planeLockWeightRight planeAlignerRight
R_Toe1_02 R_Toe1_01
R_Toe1_03 R_Toe1_02
R_Toe2_02 R_Toe2_01
R_Toe2_03 R_Toe2_02
R_Toe3_02 R_Toe3_01
R_Toe3_03 R_Toe3_02
Rear_Leg02 Rear_Leg01
Rear_Leg03 Rear_Leg02
Rear_Leg04 Rear_Leg03
Rear_Foot Rear_Leg04
planeAlignerCenter Rear_Foot
Rear_Toe1_01 Rear_Foot
Rear_Toe2_01 Rear_Foot
Rear_Toe3_01 Rear_Foot
planeLockWeightCenter planeAlignerCenter
Rear_Toe1_02 Rear_Toe1_01
Rear_Toe1_03 Rear_Toe1_02
Rear_Toe2_02 Rear_Toe2_01
Rear_Toe2_03 Rear_Toe2_02
Rear_Toe3_02 Rear_Toe3_01
Rear_Toe3_03 Rear_Toe3_02
Back_Bone Spine1
Head Spine1
Motor_Bone Back_Bone
Ping_Mechanism Back_Bone
BN_LookIK Head
bottomMouth Head
L_Mouth01 Head
L_mouthFront Head
mouthGun Head
R_Mouth01 Head
R_mouthFront Head
TopMouth Head
weapon_bone Head
[BasePosition]
#SegmentName Tx, Ty, Tz, Rx, Ry, Rz, BoneLength
Pinger_Root 0.000000 0.000000 0.000000 -90.000000 0.000000 0.000000 10.000000 
Pelvis 0.000000 0.000000 0.000000 0.000000 0.000000 0.000000 10.000000 
L_Hip 0.000000 0.000000 0.000000 0.000000 0.000000 0.000000 10.000000 
R_Hip 0.000000 0.000000 0.000000 0.000000 0.000000 0.000000 10.000000 
Rear_Leg01 0.000000 0.000000 0.000000 0.000000 0.000000 0.000000 10.000000 
Spine1 0.000000 0.000000 0.000000 0.000000 0.000000 0.000000 10.000000 
L_Leg01 0.000000 0.000000 0.000000 0.000000 0.000000 0.000000 10.000000 
L_Leg02 0.000000 0.000000 0.000000 0.000000 0.000000 0.000000 10.000000 
L_Leg03 0.000000 0.000000 0.000000 0.000000 0.000000 0.000000 10.000000 
L_Foot 0.000000 0.000000 0.000000 0.000000 0.000000 0.000000 10.000000 
L_Toe1_01 0.000000 0.000000 0.000000 0.000000 0.000000 0.000000 10.000000 
L_Toe2_01 0.000000 0.000000 0.000000 0.000000 0.000000 0.000000 10.000000 
L_Toe3_01 0.000000 0.000000 0.000000 0.000000 0.000000 0.000000 10.000000 
planeAlignerLeft 0.000000 0.000000 0.000000 0.000000 0.000000 0.000000 10.000000 
L_Toe1_02 0.000000 0.000000 0.000000 0.000000 0.000000 0.000000 10.000000 
L_Toe1_03 0.000000 0.000000 0.000000 0.000000 0.000000 0.000000 10.000000 
L_Toe2_02 0.000000 0.000000 0.000000 0.000000 0.000000 0.000000 10.000000 
L_Toe2_03 0.000000 0.000000 0.000000 0.000000 0.000000 0.000000 10.000000 
L_Toe3_02 0.000000 0.000000 0.000000 0.000000 0.000000 0.000000 10.000000 
L_Toe3_03 0.000000 0.000000 0.000000 0.000000 0.000000 0.000000 10.000000 
planeLockWeightLeft 0.000000 0.000000 0.000000 0.000000 0.000000 0.000000 10.000000 
R_Leg01 0.000000 0.000000 0.000000 0.000000 0.000000 0.000000 10.000000 
R_Leg02 0.000000 0.000000 0.000000 0.000000 0.000000 0.000000 10.000000 
R_Leg03 0.000000 0.000000 0.000000 0.000000 0.000000 0.000000 10.000000 
R_Foot 0.000000 0.000000 0.000000 0.000000 0.000000 0.000000 10.000000 
planeAlignerRight 0.000000 0.000000 0.000000 0.000000 0.000000 0.000000 10.000000 
R_Toe1_01 0.000000 0.000000 0.000000 0.000000 0.000000 0.000000 10.000000 
R_Toe2_01 0.000000 0.000000 0.000000 0.000000 0.000000 0.000000 10.000000 
R_Toe3_01 0.000000 0.000000 0.000000 0.000000 0.000000 0.000000 10.000000 
planeLockWeightRight 0.000000 0.000000 0.000000 0.000000 0.000000 0.000000 10.000000 
R_Toe1_02 0.000000 0.000000 0.000000 0.000000 0.000000 0.000000 10.000000 
R_Toe1_03 0.000000 0.000000 0.000000 0.000000 0.000000 0.000000 10.000000 
R_Toe2_02 0.000000 0.000000 0.000000 0.000000 0.000000 0.000000 10.000000 
R_Toe2_03 0.000000 0.000000 0.000000 0.000000 0.000000 0.000000 10.000000 
R_Toe3_02 0.000000 0.000000 0.000000 0.000000 0.000000 0.000000 10.000000 
R_Toe3_03 0.000000 0.000000 0.000000 0.000000 0.000000 0.000000 10.000000 
Rear_Leg02 0.000000 0.000000 0.000000 0.000000 0.000000 0.000000 10.000000 
Rear_Leg03 0.000000 0.000000 0.000000 0.000000 0.000000 0.000000 10.000000 
Rear_Leg04 0.000000 0.000000 0.000000 0.000000 0.000000 0.000000 10.000000 
Rear_Foot 0.000000 0.000000 0.000000 0.000000 0.000000 0.000000 10.000000 
planeAlignerCenter 0.000000 0.000000 0.000000 0.000000 0.000000 0.000000 10.000000 
Rear_Toe1_01 0.000000 0.000000 0.000000 0.000000 0.000000 0.000000 10.000000 
Rear_Toe2_01 0.000000 0.000000 0.000000 0.000000 0.000000 0.000000 10.000000 
Rear_Toe3_01 0.000000 0.000000 0.000000 0.000000 0.000000 0.000000 10.000000 
planeLockWeightCenter 0.000000 0.000000 0.000000 0.000000 0.000000 0.000000 10.000000 
Rear_Toe1_02 0.000000 0.000000 0.000000 0.000000 0.000000 0.000000 10.000000 
Rear_Toe1_03 0.000000 0.000000 0.000000 0.000000 0.000000 0.000000 10.000000 
Rear_Toe2_02 0.000000 0.000000 0.000000 0.000000 0.000000 0.000000 10.000000 
Rear_Toe2_03 0.000000 0.000000 0.000000 0.000000 0.000000 0.000000 10.000000 
Rear_Toe3_02 0.000000 0.000000 0.000000 0.000000 0.000000 0.000000 10.000000 
Rear_Toe3_03 0.000000 0.000000 0.000000 0.000000 0.000000 0.000000 10.000000 
Back_Bone 0.000000 0.000000 0.000000 0.000000 0.000000 0.000000 10.000000 
Head 0.000000 0.000000 0.000000 0.000000 0.000000 0.000000 10.000000 
Motor_Bone 0.000000 0.000000 0.000000 0.000000 0.000000 0.000000 10.000000 
Ping_Mechanism 0.000000 0.000000 0.000000 0.000000 0.000000 0.000000 10.000000 
BN_LookIK 0.000000 0.000000 0.000000 0.000000 0.000000 0.000000 10.000000 
bottomMouth 0.000000 0.000000 0.000000 0.000000 0.000000 0.000000 10.000000 
L_Mouth01 0.000000 0.000000 0.000000 0.000000 0.000000 0.000000 10.000000 
L_mouthFront 0.000000 0.000000 0.000000 0.000000 0.000000 0.000000 10.000000 
mouthGun 0.000000 0.000000 0.000000 0.000000 0.000000 0.000000 10.000000 
R_Mouth01 0.000000 0.000000 0.000000 0.000000 0.000000 0.000000 10.000000 
R_mouthFront 0.000000 0.000000 0.000000 0.000000 0.000000 0.000000 10.000000 
TopMouth 0.000000 0.000000 0.000000 0.000000 0.000000 0.000000 10.000000 
weapon_bone 0.000000 0.000000 0.000000 0.000000 0.000000 0.000000 10.000000 
#Beginning of Data. Separated by tabs
#Fr	Tx	Ty	Tz	Rx	Ry	Rz	SF
[Pinger_Root]
13 0.000000 0.000000 0.000000 -0.000075 -0.000000 -0.000020 0.000000
14 0.000000 0.000000 0.000000 -0.000075 -0.000000 -0.000020 0.000000
15 0.000000 0.000000 0.000000 -0.000075 -0.000000 -0.000020 0.000000
[Pelvis]
13 93.786995 790.244507 4855.238281 -40.143028 -87.681175 32.574043 4920.022461
14 90.796364 795.939392 4901.515137 -43.621647 -87.101128 36.065853 4966.549316
15 86.389145 804.941162 4934.782715 -49.290382 -86.323418 41.757610 5000.747070
[L_Hip]
13 5.766392 125.831482 872.656799 160.158691 -45.484894 122.312187 881.701050
14 5.766392 125.831482 872.656799 160.158691 -45.484898 122.312202 881.701050
15 5.766392 125.831482 872.656799 160.158691 -45.484894 122.312202 881.701050
[R_Hip]
13 5.765438 125.836372 -872.654907 38.087845 49.812691 125.703735 881.699829
14 5.765438 125.836372 -872.654907 38.087845 49.812691 125.703735 881.699829
15 5.765438 125.836372 -872.654907 38.087826 49.812672 125.703735 881.699829
[Rear_Leg01]
13 -192.298416 -925.602966 -0.001907 170.459747 3.668725 -160.728577 945.367432
14 -192.298416 -925.602966 -0.001907 170.668091 4.229775 -160.122055 945.367432
15 -192.298416 -925.602966 -0.001907 170.948257 4.884861 -159.022003 945.367432
[Spine1]
13 290.604584 5.007505 0.000477 5.977313 -3.492399 27.175774 290.647736
14 290.604584 5.007505 0.000477 5.855644 -3.727241 26.128590 290.647736
15 290.604584 5.007505 0.000477 5.769657 -3.904499 24.537724 290.647736
[L_Leg01]
13 761.932007 -0.002384 -0.069261 22.284296 -21.179525 -17.621641 761.932068
14 761.932007 -0.002384 -0.069261 22.072941 -20.367769 -18.823792 761.932068
15 761.932007 -0.002384 -0.069261 21.450855 -19.554106 -18.789305 761.932068
[L_Leg02]
13 1441.140503 -0.000954 -0.000715 -4.407712 1.704043 -110.203331 1441.140503
14 1441.140503 -0.000954 -0.000715 -3.621619 1.423636 -107.582321 1441.140503
15 1441.140503 -0.000954 -0.000715 -2.264980 0.902513 -106.130737 1441.140503
[L_Leg03]
13 1686.963989 -0.000715 -0.000954 0.034396 -0.007916 100.734619 1686.963989
14 1686.963989 -0.000715 -0.000954 0.035489 -0.009029 100.222061 1686.963989
15 1686.963989 -0.000715 -0.000954 0.036593 -0.010131 99.709503 1686.963989
[L_Foot]
13 3041.570068 -30.715107 11.297464 1.104790 15.778637 56.040745 3041.746094
14 3041.570068 -30.715107 11.297464 1.692300 15.189641 55.944729 3041.746094
15 3041.570068 -30.715107 11.297464 2.460535 14.435055 56.127167 3041.746094
[L_Toe1_01]
13 -188.216690 -224.732346 -21.137953 93.823845 -7.078024 -173.383209 293.899567
14 -188.216690 -224.732346 -21.137953 93.827400 -7.079424 -173.427002 293.899567
15 -188.216690 -224.732346 -21.137953 93.834229 -7.018940 -173.471680 293.899567
[L_Toe2_01]
13 200.746536 -219.926590 148.838394 -90.674042 -27.162525 -50.588543 332.896027
14 200.746536 -219.926590 148.838394 -90.687019 -27.076355 -50.614399 332.896027
15 200.746536 -219.926590 148.838394 -90.699997 -26.990175 -50.640244 332.896027
[L_Toe3_01]
13 188.832520 -219.859131 -191.078659 -99.354881 14.286614 -65.210121 347.140900
14 188.832520 -219.859131 -191.078659 -99.387817 14.318028 -65.284447 347.140900
15 188.832520 -219.859131 -191.078659 -99.420799 14.349402 -65.358803 347.140900
[planeAlignerLeft]
13 29.105835 -561.884888 105.956596 169.306686 -76.298271 89.968506 572.528259
14 29.759827 -562.493652 105.137527 169.306686 -76.298271 89.968506 573.008362
15 30.413820 -563.102295 104.318459 169.306656 -76.298256 89.968506 573.490662
[L_Toe1_02]
13 413.761139 0.000477 0.000000 0.000203 -25.410625 -0.000182 413.761139
14 413.761139 0.000477 0.000000 0.000203 -25.410625 -0.000182 413.761139
15 413.761139 0.000477 0.000000 0.000203 -25.410625 -0.000182 413.761139
[L_Toe1_03]
13 464.317322 0.000358 -0.000089 0.003716 53.182106 0.003716 464.317322
14 464.317322 0.000358 -0.000089 0.003730 53.320381 0.003730 464.317322
15 464.317322 0.000358 -0.000089 0.003763 53.655750 0.003763 464.317322
[L_Toe2_02]
13 342.235809 -0.000477 0.000238 0.001186 -73.521530 0.001186 342.235809
14 342.235809 -0.000477 0.000238 0.001186 -73.484497 0.001186 342.235809
15 342.235809 -0.000477 0.000238 0.001186 -73.447479 0.001186 342.235809
[L_Toe2_03]
13 420.210846 -0.000715 0.000000 -0.048122 88.579491 -0.044625 420.210846
14 420.210846 -0.000715 0.000000 -0.044971 88.476456 -0.041474 420.210846
15 420.210846 -0.000715 0.000000 -0.042221 88.372734 -0.038724 420.210846
[L_Toe3_02]
13 329.270111 0.000954 0.000000 0.001177 -81.479675 0.001177 329.270111
14 329.270111 0.000954 0.000000 0.001177 -81.439430 0.001177 329.270111
15 329.270111 0.000954 0.000000 0.001177 -81.399239 0.001177 329.270111
[L_Toe3_03]
13 439.137451 -0.001907 0.000954 -179.997635 74.035858 -179.994095 439.137451
14 439.137451 -0.001907 0.000954 -179.997589 74.162827 -179.994064 439.137451
15 439.137451 -0.001907 0.000954 -179.997513 74.486237 -179.993988 439.137451
[planeLockWeightLeft]
13 999.998718 0.097961 0.076027 -0.011826 -0.004376 0.005620 999.998779
14 999.998718 0.097961 0.076027 -0.011826 -0.004376 0.005620 999.998779
15 999.998718 0.097961 0.076027 -0.011826 -0.004376 0.005620 999.998779
[R_Leg01]
13 761.455627 -0.001907 -0.000358 120.381332 -24.207392 30.441231 761.455688
14 761.455627 -0.001907 -0.000358 120.798195 -23.307367 29.689354 761.455688
15 761.455627 -0.001907 -0.000358 121.591995 -22.832294 28.026106 761.455688
[R_Leg02]
13 1441.140625 0.000000 -0.000238 3.349099 -0.873920 -122.354820 1441.140625
14 1441.140625 0.000000 -0.000238 2.592316 -0.699091 -120.655457 1441.140625
15 1441.140625 0.000000 -0.000238 1.331444 -0.378811 -119.835777 1441.140625
[R_Leg03]
13 1686.963989 0.000954 0.001431 -0.004582 0.000769 109.051926 1686.963989
14 1686.963989 0.000954 0.001431 -0.006029 0.002757 108.570732 1686.963989
15 1686.963989 0.000954 0.001431 -0.007492 0.004733 108.089523 1686.963989
[R_Foot]
13 3041.560059 -30.531288 -11.204481 -0.833228 -27.169304 62.575912 3041.734131
14 3041.560059 -30.531288 -11.204481 -1.247787 -26.435394 62.575947 3041.734131
15 3041.560059 -30.531288 -11.204481 -1.767105 -25.424391 62.817532 3041.734131
[planeAlignerRight]
13 -131.491180 -542.641968 -318.250763 -36.577137 -71.339012 -64.343925 642.677002
14 -130.761627 -543.288086 -317.349945 -36.577156 -71.339035 -64.343956 642.628662
15 -130.032043 -543.934265 -316.449097 -36.577137 -71.339012 -64.343925 642.582947
[R_Toe1_01]
13 -188.383347 -224.864899 21.052242 76.794411 -0.204231 -174.482178 294.101532
14 -188.383347 -224.864899 21.052242 76.800766 -0.280751 -174.492050 294.101532
15 -188.383347 -224.864899 21.052242 76.807114 -0.357269 -174.501907 294.101532
[R_Toe2_01]
13 200.637817 -220.002121 -148.787384 -91.149139 33.893219 -57.532875 332.857574
14 200.637817 -220.002121 -148.787384 -91.131714 33.850349 -57.525105 332.857574
15 200.637817 -220.002121 -148.787384 -91.114273 33.807472 -57.517330 332.857574
[R_Toe3_01]
13 188.606735 -220.092957 191.126343 -73.341766 -8.837234 -71.903160 347.192566
14 188.606735 -220.092957 191.126343 -73.312645 -8.866278 -71.945656 347.192566
15 188.606735 -220.092957 191.126343 -73.283463 -8.895287 -71.988152 347.192566
[planeLockWeightRight]
13 999.999329 0.000000 0.076017 -0.011823 -0.004379 -0.000027 999.999329
14 999.999329 0.000000 0.076017 -0.011823 -0.004379 -0.000027 999.999329
15 999.999329 0.000000 0.076017 -0.011823 -0.004379 -0.000027 999.999329
[R_Toe1_02]
13 413.762085 0.000477 -0.000119 0.001395 -24.515224 0.001395 413.762085
14 413.762085 0.000477 -0.000119 0.001395 -24.503208 0.001395 413.762085
15 413.762085 0.000477 -0.000119 0.001395 -24.491190 0.001395 413.762085
[R_Toe1_03]
13 464.317810 0.000000 0.001088 0.006754 69.985291 0.006754 464.317810
14 464.317810 0.000000 0.001088 0.006818 70.177124 0.006818 464.317810
15 464.317810 0.000000 0.001088 0.006884 70.368950 0.006884 464.317810
[R_Toe2_02]
13 342.234741 -0.000954 0.000238 0.001194 -68.880203 0.001194 342.234741
14 342.234741 -0.000954 0.000238 0.001194 -68.830292 0.001194 342.234741
15 342.234741 -0.000954 0.000238 0.001194 -68.780388 0.001194 342.234741
[R_Toe2_03]
13 420.210846 0.000715 -0.000268 0.010397 77.037216 0.010397 420.210846
14 420.210846 0.000715 -0.000268 0.010318 76.937462 0.010318 420.210846
15 420.210846 0.000715 -0.000268 0.010240 76.837692 0.010240 420.210846
[R_Toe3_02]
13 329.270355 -0.000477 -0.000954 0.001182 -76.627586 0.001182 329.270355
14 329.270355 -0.000477 -0.000954 0.001182 -76.497261 0.001182 329.270355
15 329.270355 -0.000477 -0.000954 0.001182 -76.366959 0.001182 329.270355
[R_Toe3_03]
13 439.137939 0.000238 0.001431 -0.052709 88.707596 -0.049212 439.137939
14 439.137939 0.000238 0.001431 -0.047450 88.558434 -0.043953 439.137939
15 439.137939 0.000238 0.001431 -0.037854 88.175766 -0.034357 439.137939
[Rear_Leg02]
13 1162.777710 -0.029802 0.005960 -0.018102 -2.996024 -110.021019 1162.777710
14 1162.777710 -0.029802 0.005960 -0.117057 -2.993794 -106.236015 1162.777710
15 1162.777710 -0.029802 0.005960 -0.190914 -2.997714 -102.018425 1162.777710
[Rear_Leg03]
13 607.192505 -0.013351 -0.073195 0.006560 -0.001831 59.397476 607.192505
14 607.192505 -0.013351 -0.073195 0.006572 -0.001786 58.613281 607.192505
15 607.192505 -0.013351 -0.073195 0.006581 -0.001753 58.040966 607.192505
[Rear_Leg04]
13 995.874512 -0.020504 -0.011921 -0.039170 -0.018363 49.037472 995.874573
14 995.874512 -0.020504 -0.011921 -0.038947 -0.018832 47.660492 995.874573
15 995.874512 -0.020504 -0.011921 -0.038131 -0.017659 46.660561 995.874573
[Rear_Foot]
13 3096.176270 -0.067472 -0.041425 -140.419189 85.850929 49.642700 3096.176270
14 3096.176270 -0.067472 -0.041425 -139.159485 85.917877 50.321117 3096.176270
15 3096.176270 -0.067472 -0.041425 -137.867569 85.983604 51.031574 3096.176270
[planeAlignerCenter]
13 1.037731 -19.639078 -746.498901 12.240770 -0.001473 179.998184 746.757935
14 1.037788 -18.893940 -747.029236 12.240772 -0.001473 179.998184 747.268860
15 1.037846 -18.148802 -747.559692 12.240770 -0.001473 179.998184 747.780701
[Rear_Toe1_01]
13 0.653352 83.966492 -371.173737 0.282567 39.626095 90.406960 380.553192
14 0.653352 83.966492 -371.173737 0.282467 39.703110 90.406769 380.553192
15 0.653352 83.966492 -371.173737 0.282366 39.780132 90.406570 380.553192
[Rear_Toe2_01]
13 178.200760 -294.826019 -362.060547 -7.427802 32.824459 -66.430290 499.765686
14 178.200760 -294.826019 -362.060547 -7.420447 32.854218 -66.411026 499.765686
15 178.200760 -294.826019 -362.060547 -7.413072 32.883965 -66.391731 499.765686
[Rear_Toe3_01]
13 -153.359680 -308.780914 -362.060852 3.420372 31.947441 -112.403801 499.952881
14 -153.359680 -308.780914 -362.060852 3.422215 31.930370 -112.405472 499.952881
15 -153.359680 -308.780914 -362.060852 3.413657 31.990763 -112.433174 499.952881
[planeLockWeightCenter]
13 1000.000000 0.000305 0.076256 -0.011814 -0.004373 -0.000015 1000.000000
14 1000.000000 0.000305 0.076256 -0.011814 -0.004373 -0.000015 1000.000000
15 1000.000000 0.000305 0.076256 -0.011814 -0.004373 -0.000015 1000.000000
[Rear_Toe1_02]
13 379.707825 0.194073 0.000477 -0.000309 -32.596985 0.006972 379.707855
14 379.707825 0.194073 0.000477 -0.000309 -32.589771 0.006971 379.707855
15 379.707825 0.194073 0.000477 -0.000308 -32.582561 0.006971 379.707855
[Rear_Toe1_03]
13 500.129700 0.165701 0.000119 -0.003906 58.030006 -0.000268 500.129761
14 500.129700 0.165701 0.000119 -0.003895 57.854694 -0.000256 500.129761
15 500.129700 0.165701 0.000119 -0.003135 57.397182 0.001116 500.129761
[Rear_Toe2_02]
13 340.494507 0.000238 -0.000954 0.001191 -70.207809 0.001191 340.494507
14 340.494507 0.000238 -0.000954 0.001191 -70.222870 0.001191 340.494507
15 340.494507 0.000238 -0.000954 0.001191 -70.344994 0.001191 340.494507
[Rear_Toe2_03]
13 433.103577 0.000000 0.000238 0.006837 70.233009 0.006837 433.103546
14 433.103577 0.000000 0.000238 0.006902 70.418266 0.006902 433.103546
15 433.103577 0.000000 0.000238 0.006967 70.603500 0.006967 433.103546
[Rear_Toe3_02]
13 340.494141 -0.000358 -0.000477 0.008402 -67.566032 -0.009574 340.494171
14 340.494141 -0.000358 -0.000477 0.008407 -67.577919 -0.009578 340.494171
15 340.494141 -0.000358 -0.000477 0.007425 -67.718605 -0.008087 340.494171
[Rear_Toe3_03]
13 433.103577 0.001431 -0.000238 -0.001010 66.283562 -0.004583 433.103546
14 433.103577 0.001431 -0.000238 0.000664 66.483383 -0.002015 433.103546
15 433.103577 0.001431 -0.000238 0.002374 66.683182 0.000589 433.103546
[Back_Bone]
13 1312.175781 -701.934692 0.000954 1.432025 0.348342 -98.955322 1488.125488
14 1312.175781 -701.934692 0.000954 1.442009 0.318115 -96.804115 1488.125488
15 1312.175781 -701.934692 0.000954 1.450325 0.271926 -93.698135 1488.125488
[Head]
13 1406.159424 809.709290 0.001431 -0.288083 -1.446964 8.785794 1622.625488
14 1406.159424 809.709290 0.001431 -0.278109 -1.448993 8.769551 1622.625488
15 1406.159424 809.709290 0.001431 -0.268134 -1.451020 8.753305 1622.625488
[Motor_Bone]
13 1158.364380 -417.834747 0.000477 -0.088667 0.076833 -106.225197 1231.419434
14 1158.364380 -417.834747 0.000477 -0.074365 0.071333 -107.076157 1231.419434
15 1158.364380 -417.834747 0.000477 -0.056207 0.062946 -108.325630 1231.419434
[Ping_Mechanism]
13 1268.516113 -93.358017 10.583117 0.000103 -0.000053 82.120995 1271.990845
14 1290.742188 50.777119 12.575656 0.000103 -0.000053 82.120995 1291.801758
15 1315.034790 199.791351 14.594652 0.000103 -0.000053 82.120995 1330.205200
[BN_LookIK]
13 193.241119 1380.371704 -0.002861 0.000000 89.965736 -31.038179 1393.832153
14 193.241119 1380.371704 -0.002861 0.000000 89.965736 -31.038179 1393.832153
15 193.241119 1380.371704 -0.002861 0.000000 89.965736 -31.038179 1393.832153
[bottomMouth]
13 -435.092926 615.759399 -0.000954 -0.000022 0.000016 73.527184 753.966492
14 -435.092926 615.759399 -0.000954 -0.000022 0.000016 73.527184 753.966492
15 -435.092926 615.759399 -0.000954 -0.000022 0.000016 73.527184 753.966492
[L_Mouth01]
13 554.440979 7.658243 838.222046 150.204178 23.759130 109.605339 1005.027161
14 554.440979 7.658243 838.222046 150.204178 23.759130 109.605339 1005.027161
15 554.440979 7.658243 838.222046 150.204178 23.759130 109.605339 1005.027161
[L_mouthFront]
13 551.629089 934.514771 339.150421 0.000081 2.804060 79.119301 1136.941284
14 551.629089 934.514771 339.150421 0.000081 2.804060 79.119301 1136.941284
15 551.629089 934.514771 339.150421 0.000081 2.804060 79.119301 1136.941284
[mouthGun]
13 55.332661 1627.420898 0.000000 0.000023 0.000009 -11.038128 1628.361328
14 55.332661 1627.420898 0.000000 0.000023 0.000009 -11.038128 1628.361328
15 55.332661 1627.420898 0.000000 0.000023 0.000009 -11.038128 1628.361328
[R_Mouth01]
13 554.442383 7.659197 -838.223938 29.795891 -23.759109 109.605331 1005.029541
14 554.442383 7.659197 -838.223938 29.795891 -23.759109 109.605331 1005.029541
15 554.442383 7.659197 -838.223938 29.795891 -23.759109 109.605331 1005.029541
[R_mouthFront]
13 551.629089 934.514282 -339.151367 0.000029 -2.803930 79.119133 1136.941162
14 551.629089 934.514282 -339.151367 0.000029 -2.803930 79.119133 1136.941162
15 551.629089 934.514282 -339.151367 0.000029 -2.803930 79.119133 1136.941162
[TopMouth]
13 461.269867 -56.106091 -0.008583 -0.000059 -0.000268 92.025169 464.669525
14 461.269867 -56.106091 -0.008583 -0.000059 -0.000268 92.025169 464.669525
15 461.269867 -56.106091 -0.008583 -0.000059 -0.000268 92.025169 464.669525
[weapon_bone]
13 -987.239868 1448.372803 0.001431 0.000000 89.965736 -31.038221 1752.833740
14 -987.239868 1448.372803 0.001431 0.000000 89.965736 -31.038221 1752.833740
15 -987.239868 1448.372803 0.001431 0.000000 89.965736 -31.038221 1752.833740
